<svg width="225" height="237" viewBox="0 0 225 237" fill="none" xmlns="http://www.w3.org/2000/svg">
<path d="M133.369 135.886C133.41 135.923 133.449 135.962 133.486 136.003L133.819 136.349L135.107 137.713L139.967 142.918L157.186 161.484H156.987L176.519 139.112L176.654 138.96L176.765 139.13L178.188 141.273L192.965 163.521L192.761 163.486L206.964 152.139L207.046 152.075L207.117 152.151L217.96 164.446L220.887 167.801L221.649 168.679C221.818 168.878 221.9 168.984 221.9 168.984C221.9 168.984 221.801 168.89 221.625 168.703L220.852 167.801L217.866 164.487L206.953 152.28H207.105L192.936 163.703L192.819 163.796L192.731 163.668L177.936 141.454L176.507 139.305H176.747C169.64 147.444 162.953 155.084 157.192 161.677L157.093 161.788L156.993 161.677C149.92 153.984 144.001 147.555 139.85 143.035L135.049 137.766L133.79 136.372C133.655 136.214 133.55 136.097 133.468 136.009C133.386 135.921 133.363 135.892 133.369 135.886Z" fill="#E6E6E6"/>
<path d="M155.166 161.636C155.163 162.043 155.28 162.441 155.504 162.781C155.728 163.121 156.048 163.386 156.423 163.543C156.798 163.701 157.212 163.743 157.611 163.664C158.01 163.586 158.377 163.39 158.664 163.102C158.952 162.815 159.148 162.448 159.226 162.049C159.305 161.65 159.263 161.236 159.105 160.861C158.948 160.486 158.683 160.166 158.343 159.942C158.003 159.718 157.605 159.601 157.198 159.604C156.66 159.607 156.145 159.822 155.765 160.203C155.384 160.583 155.169 161.098 155.166 161.636V161.636Z" fill="#E0E0E0"/>
<path d="M191.039 164.077C191.041 164.483 191.164 164.879 191.391 165.214C191.619 165.55 191.941 165.811 192.316 165.964C192.692 166.117 193.105 166.154 193.502 166.073C193.899 165.991 194.263 165.793 194.548 165.504C194.832 165.215 195.025 164.849 195.101 164.45C195.177 164.052 195.133 163.64 194.975 163.267C194.817 162.893 194.552 162.575 194.213 162.352C193.874 162.13 193.476 162.013 193.071 162.016C192.528 162.021 192.01 162.241 191.629 162.627C191.248 163.013 191.036 163.535 191.039 164.077Z" fill="#E0E0E0"/>
<path d="M204.991 152.795C204.995 153.199 205.118 153.593 205.346 153.927C205.573 154.261 205.894 154.52 206.269 154.672C206.644 154.823 207.055 154.86 207.451 154.778C207.846 154.696 208.209 154.498 208.492 154.21C208.775 153.922 208.967 153.556 209.042 153.159C209.118 152.762 209.074 152.351 208.916 151.979C208.758 151.607 208.493 151.29 208.155 151.069C207.817 150.847 207.421 150.731 207.017 150.734C206.476 150.74 205.959 150.96 205.579 151.347C205.2 151.733 204.988 152.254 204.991 152.795V152.795Z" fill="#E0E0E0"/>
<path d="M174.587 139.387C174.589 139.793 174.712 140.189 174.939 140.524C175.167 140.86 175.489 141.121 175.864 141.274C176.24 141.427 176.652 141.464 177.05 141.383C177.447 141.301 177.811 141.103 178.095 140.814C178.38 140.525 178.573 140.159 178.649 139.76C178.725 139.362 178.681 138.95 178.523 138.576C178.365 138.203 178.1 137.885 177.761 137.662C177.422 137.44 177.024 137.323 176.619 137.326C176.076 137.331 175.558 137.551 175.177 137.937C174.796 138.323 174.584 138.845 174.587 139.387V139.387Z" fill="#E0E0E0"/>
<path d="M220.284 169.042C220.287 169.448 220.409 169.844 220.637 170.179C220.864 170.515 221.186 170.776 221.562 170.929C221.937 171.082 222.35 171.119 222.747 171.038C223.144 170.956 223.508 170.758 223.793 170.469C224.078 170.18 224.27 169.814 224.346 169.415C224.422 169.017 224.379 168.605 224.221 168.231C224.062 167.858 223.797 167.54 223.458 167.317C223.119 167.095 222.722 166.978 222.316 166.981C221.774 166.986 221.255 167.206 220.874 167.592C220.493 167.978 220.281 168.5 220.284 169.042V169.042Z" fill="#E0E0E0"/>
<path d="M40.8086 13.9932H27.6526V66.3183H40.8086V13.9932Z" fill="#E6E6E6"/>
<path d="M60.159 25.4044H47.0031V66.3125H60.159V25.4044Z" fill="#E6E6E6"/>
<path d="M79.808 34.7488H66.652V66.3125H79.808V34.7488Z" fill="#E6E6E6"/>
<path d="M97.9991 47.571H84.8432V66.3183H97.9991V47.571Z" fill="#E6E6E6"/>
<path d="M87.4662 0.936768C87.4662 0.936768 87.3432 1.09485 87.1032 1.37588L86.0083 2.63469L81.8455 7.37714L66.8336 24.3563L66.7516 24.4441L66.6579 24.3739L56.8627 16.8679H57.0618L43.3613 34.2335L43.1974 34.4443L43.0978 34.5731L42.9749 34.4619L24.5261 18.1677H24.7311C17.4886 27.676 11.3526 35.7968 6.96146 41.5404L1.85014 48.2208L0.485957 49.9773L0.128808 50.4281C0.0889455 50.4814 0.0459321 50.5322 0 50.5804C0.0332585 50.5232 0.0704295 50.4684 0.111244 50.4164L0.450824 49.948L1.77989 48.1506L6.82095 41.4233L24.5027 17.9686L24.5964 17.8457L24.7076 17.9452L43.1798 34.1984H42.9573L43.1213 33.9876L56.8393 16.6337L56.9271 16.5225L57.0383 16.6103L66.816 24.1104H66.6403L81.7284 7.2659C83.5493 5.24597 84.9779 3.65929 85.9556 2.58199L87.0739 1.35246C87.3315 1.05972 87.4662 0.936768 87.4662 0.936768Z" fill="#E6E6E6"/>
<path d="M85.294 13.074C85.2893 12.9851 85.2992 12.8961 85.3233 12.8105L85.4696 12.0611C85.6219 11.3643 85.8268 10.4393 86.0551 9.30927C86.5762 6.96731 87.3139 3.77055 88.1629 0.187356L88.3502 0.363002L87.6886 0.567923C84.0176 1.69792 80.692 2.6991 78.2798 3.4134L75.4168 4.23894L74.6322 4.44971C74.5423 4.48326 74.4472 4.50109 74.3512 4.50241C74.4352 4.45678 74.5234 4.41952 74.6147 4.39117L75.3817 4.1277L78.2154 3.20848C80.6101 2.44149 83.9298 1.40517 87.5832 0.281034L88.2448 0.0819681L88.5025 0L88.4381 0.263468C87.6242 3.86422 86.8807 7.04928 86.2952 9.36196C86.0083 10.4802 85.7741 11.3995 85.6043 12.0903C85.5223 12.3772 85.4521 12.6231 85.3994 12.8222C85.3768 12.9108 85.3413 12.9957 85.294 13.074V13.074Z" fill="#E6E6E6"/>
<path d="M189.078 89.4099C191.692 89.3675 194.26 90.1011 196.457 91.5181C198.655 92.9351 200.383 94.9718 201.422 97.3707C202.462 99.7696 202.767 102.423 202.299 104.995C201.831 107.568 200.611 109.943 198.793 111.822C196.974 113.701 194.64 114.999 192.084 115.551C189.529 116.103 186.867 115.885 184.435 114.924C182.003 113.963 179.911 112.303 178.423 110.154C176.935 108.004 176.117 105.461 176.074 102.847C176.021 99.3419 177.36 95.9588 179.798 93.4398C182.235 90.9208 185.573 89.4716 189.078 89.4099V89.4099ZM189.394 108.954C190.644 108.93 191.859 108.537 192.885 107.824C193.911 107.11 194.703 106.108 195.161 104.945C195.618 103.782 195.72 102.509 195.455 101.287C195.189 100.066 194.567 98.9505 193.668 98.0823C192.769 97.214 191.632 96.6318 190.402 96.4092C189.172 96.1866 187.904 96.3335 186.757 96.8315C185.61 97.3295 184.637 98.1561 183.96 99.207C183.283 100.258 182.933 101.486 182.954 102.736C182.968 103.567 183.146 104.387 183.478 105.149C183.809 105.912 184.288 106.601 184.886 107.179C185.484 107.756 186.19 108.21 186.963 108.515C187.737 108.819 188.563 108.968 189.394 108.954V108.954Z" fill="#E0E0E0"/>
<path d="M189.054 87.7648C192.997 87.7084 196.801 89.2175 199.632 91.9613C202.464 94.7051 204.092 98.4597 204.16 102.402L195.143 102.636C195.085 98.7193 192.433 97.1267 189.289 96.9277C188.516 96.8815 187.742 96.9957 187.016 97.2631C186.289 97.5305 185.626 97.9454 185.068 98.4816C184.51 99.0178 184.069 99.6637 183.772 100.379C183.476 101.094 183.331 101.862 183.346 102.636L174.423 102.876C174.362 98.9328 175.869 95.1264 178.612 92.2931C181.355 89.4597 185.111 87.831 189.054 87.7648Z" fill="#F0F0F0"/>
<path d="M82.027 147.666C86.5785 142.89 92.8228 140.092 99.4167 139.873C106.01 139.654 112.427 142.032 117.285 146.495C119.672 148.695 121.598 151.346 122.952 154.296C124.307 157.245 125.062 160.434 125.175 163.678C125.287 166.921 124.755 170.155 123.609 173.192C122.463 176.228 120.725 179.007 118.497 181.367C113.946 186.143 107.701 188.941 101.107 189.16C94.5136 189.379 88.0973 187.001 83.2389 182.538C80.8524 180.338 78.9261 177.687 77.5718 174.737C76.2175 171.788 75.4621 168.599 75.3494 165.355C75.2367 162.111 75.7688 158.878 76.9151 155.841C78.0614 152.805 79.7989 150.026 82.027 147.666V147.666ZM108.959 172.573C110.028 171.445 110.861 170.116 111.41 168.663C111.96 167.21 112.215 165.662 112.16 164.11C112.106 162.557 111.743 161.031 111.093 159.621C110.443 158.21 109.519 156.942 108.374 155.892C106.048 153.76 102.979 152.627 99.8261 152.737C96.6733 152.846 93.6897 154.19 91.5177 156.478C90.4496 157.606 89.6165 158.935 89.067 160.388C88.5175 161.84 88.2626 163.388 88.317 164.941C88.3715 166.493 88.7344 168.019 89.3844 169.43C90.0344 170.841 90.9586 172.108 92.1032 173.158C94.4286 175.295 97.5011 176.431 100.657 176.322C103.813 176.212 106.8 174.866 108.971 172.573H108.959Z" fill="#F5F5F5"/>
<path d="M82.027 147.666C86.5784 142.89 92.8228 140.092 99.4166 139.873C106.01 139.654 112.427 142.032 117.285 146.495L108.397 155.91C106.072 153.778 103.002 152.645 99.8495 152.754C96.6967 152.864 93.7131 154.207 91.5412 156.495C90.473 157.623 89.6399 158.952 89.0904 160.405C88.5409 161.858 88.286 163.406 88.3404 164.958C88.3949 166.511 88.7578 168.037 89.4078 169.447C90.0578 170.858 90.982 172.126 92.1266 173.176L83.2272 182.555C80.8388 180.355 78.9113 177.702 77.5564 174.75C76.2016 171.799 75.4464 168.607 75.3348 165.362C75.2231 162.116 75.7572 158.88 76.906 155.843C78.0548 152.805 79.7954 150.026 82.027 147.666V147.666Z" fill="#E0E0E0"/>
<path d="M116.266 142.449C128.562 153.826 130.055 172.309 118.55 184.511L106.061 173.744C111.559 167.918 112.753 160.137 106.869 154.698L116.266 142.449Z" fill="#EBEBEB"/>
<path d="M104.762 174.517L112.18 189.189C115.247 188.065 118.011 186.243 120.254 183.867L106.928 173.106L104.762 174.517Z" fill="#E0E0E0"/>
<path d="M132.748 39.0814C132.64 32.5047 134.485 26.0437 138.049 20.5157C141.614 14.9878 146.738 10.6413 152.774 8.02612C158.809 5.41094 165.484 4.64458 171.955 5.82399C178.426 7.00341 184.402 10.0756 189.127 14.6519C193.851 19.2282 197.113 25.103 198.498 31.5331C199.883 37.9632 199.33 44.6597 196.908 50.7754C194.487 56.891 190.306 62.1511 184.894 65.8902C179.483 69.6293 173.084 71.6793 166.507 71.781C157.699 71.9063 149.199 68.5351 142.872 62.406C136.544 56.2768 132.903 47.8895 132.748 39.0814V39.0814ZM181.888 38.291C181.837 35.1477 180.854 32.0901 179.065 29.505C177.276 26.9199 174.761 24.9233 171.837 23.7676C168.914 22.612 165.713 22.3492 162.64 23.0125C159.567 23.6758 156.76 25.2354 154.573 27.4941C152.387 29.7528 150.919 32.6092 150.355 35.702C149.792 38.7949 150.158 41.9854 151.408 44.87C152.658 47.7547 154.735 50.204 157.377 51.9082C160.018 53.6125 163.106 54.4952 166.25 54.4446C170.464 54.3722 174.478 52.6307 177.41 49.6022C180.342 46.5737 181.952 42.5057 181.888 38.291V38.291Z" fill="#FAFAFA"/>
<path d="M132.748 39.0814C132.615 30.2669 135.984 21.7597 142.117 15.4271C148.25 9.09449 156.645 5.45394 165.459 5.3045L165.74 22.6525C161.524 22.7201 157.508 24.4596 154.575 27.4885C151.641 30.5173 150.031 34.5874 150.099 38.8032C150.166 43.0191 151.906 47.0355 154.935 49.9688C157.964 52.9022 162.034 54.5121 166.25 54.4446L166.507 71.7809C157.698 71.9093 149.197 68.5392 142.868 62.4094C136.54 56.2796 132.9 47.8904 132.748 39.0814V39.0814Z" fill="#E0E0E0"/>
<path d="M162.473 2.6347C183.92 2.28926 201.033 18.8586 201.373 40.305L181.074 40.6329C180.91 30.3752 173.071 23.9172 162.819 24.087L162.473 2.6347Z" fill="#F0F0F0"/>
<path d="M201.637 236.848C201.637 236.93 157.86 237 103.86 237C49.8603 237 6.08325 236.93 6.08325 236.848C6.08325 236.766 49.8485 236.69 103.86 236.69C157.871 236.69 201.637 236.76 201.637 236.848Z" fill="#263238"/>
<path d="M66.0783 155.664L174.569 154.885V156.407L66.0783 157.379V155.664Z" fill="#263238"/>
<path d="M63.7129 45.3637L66.1837 156.571L174.569 155.728V43.496L63.7129 45.3637Z" fill="white"/>
<path d="M63.7129 45.3636L174.569 43.3671H174.704V43.5018C174.704 75.6276 174.704 113.538 174.704 153.984V155.886H174.552L66.1661 156.712H66.0373V156.583C64.638 89.931 63.7246 46.5112 63.6954 45.3695C63.6954 46.4936 64.7375 89.931 66.2949 156.571L66.1661 156.443L174.552 155.582L174.4 155.734V153.978C174.4 113.532 174.4 75.6217 174.4 43.4959L174.534 43.6306L63.7129 45.3636Z" fill="#263238"/>
<path d="M63.2797 46.1072L175.044 45.4691L175.184 40.7793L63.2797 41.476V46.1072Z" fill="#263238"/>
<path d="M116.782 159.604C116.594 159.604 116.395 158.732 116.342 157.643C116.29 156.554 116.407 155.664 116.594 155.652C116.782 155.64 116.981 156.519 117.033 157.608C117.086 158.697 116.975 159.604 116.782 159.604Z" fill="#263238"/>
<path d="M116.741 158.802C116.741 158.761 116.928 158.749 117.221 158.866C117.397 158.941 117.563 159.039 117.713 159.159C117.914 159.321 118.083 159.52 118.21 159.745C118.384 160.056 118.471 160.408 118.463 160.764C118.455 161.12 118.351 161.468 118.163 161.771C118.051 161.953 117.908 162.115 117.742 162.251C117.568 162.39 117.369 162.496 117.156 162.561C116.704 162.686 116.222 162.651 115.792 162.461C115.575 162.365 115.377 162.23 115.207 162.063C115.038 161.897 114.904 161.697 114.814 161.478C114.652 161.078 114.617 160.639 114.715 160.219C114.787 159.869 114.956 159.546 115.202 159.288C115.448 159.029 115.762 158.844 116.108 158.755C116.551 158.634 117.023 158.676 117.437 158.872C117.718 159.013 117.824 159.159 117.8 159.194C117.777 159.229 117.619 159.194 117.35 159.124C116.983 159.056 116.604 159.088 116.255 159.218C116.029 159.305 115.829 159.446 115.669 159.628C115.486 159.842 115.367 160.103 115.325 160.381C115.282 160.659 115.318 160.944 115.429 161.203C115.557 161.481 115.785 161.7 116.067 161.817C116.349 161.943 116.664 161.97 116.963 161.893C117.238 161.822 117.476 161.651 117.631 161.413C117.783 161.189 117.874 160.929 117.894 160.658C117.912 160.536 117.912 160.412 117.894 160.289C117.875 160.174 117.842 160.062 117.794 159.956C117.644 159.611 117.409 159.311 117.109 159.083C116.893 158.931 116.741 158.849 116.741 158.802Z" fill="#263238"/>
<path d="M132.865 106.219C132.865 106.219 132.865 106.219 132.795 106.219H132.596L131.823 106.254L128.843 106.383L117.882 106.793C108.626 107.133 95.8328 107.584 81.7108 108.069L76.8513 108.233H76.74V108.122C75.7564 95.2005 74.8665 83.6195 74.2517 75.2938C73.9472 71.1369 73.7072 67.7937 73.5374 65.4927C73.4613 64.3218 73.3969 63.4494 73.3559 62.8463C73.3559 62.5419 73.3208 62.3135 73.3149 62.1555C73.3091 61.9974 73.3149 62.0208 73.3149 61.9798C73.3149 61.9388 73.3149 61.9213 73.3149 61.9213C73.3176 61.9407 73.3176 61.9604 73.3149 61.9798C73.3149 62.0208 73.3149 62.0793 73.3149 62.1555C73.3149 62.2316 73.35 62.5419 73.3793 62.8405C73.4262 63.426 73.5023 64.3335 73.6018 65.4869C73.7833 67.7879 74.0526 71.131 74.3864 75.2763C75.0421 83.5785 75.9438 95.1302 76.9391 108.105L76.822 107.999L81.6816 107.829C95.8035 107.349 108.614 106.922 117.853 106.629L128.819 106.29L131.799 106.208H132.572H132.842L132.865 106.219Z" fill="#455A64"/>
<path d="M93.6197 58.3205V59.8135L109.065 59.0758V57.8229L93.6197 58.3205Z" fill="#263238"/>
<path d="M81.9275 104.943H87.2964L86.4533 90.3702H81.1898L81.9275 104.943Z" fill="#FF725E"/>
<path d="M91.6583 104.949H97.0214L96.1841 84.5797H90.9206L91.6583 104.949Z" fill="#FF725E"/>
<path d="M100.768 104.299H106.137L105.294 77.6299H100.037L100.768 104.299Z" fill="#FF725E"/>
<path d="M121.67 103.263H127.034L126.196 66.9155H120.933L121.67 103.263Z" fill="#FF725E"/>
<path d="M111.501 103.386H116.864L116.02 72.1088H110.763L111.501 103.386Z" fill="#FF725E"/>
<path d="M78.5551 86.5938C78.4145 86.3771 88.0048 79.9836 99.9664 72.3137C111.928 64.6438 121.752 58.6016 121.893 58.8475C122.033 59.0934 112.443 65.4576 100.476 73.1275C88.5084 80.7974 78.6839 86.8104 78.5551 86.5938Z" fill="#FF725E"/>
<path d="M116.583 58.824C116.536 58.5664 120.008 57.6999 124.352 56.8802L125.453 56.6753L124.826 57.6062L124.791 57.6589C122.309 61.3475 120.107 64.2222 119.902 64.0993C119.697 63.9763 121.53 60.8498 124.001 57.1554L124.036 57.1027L124.516 57.8287C120.177 58.6191 116.629 59.0758 116.583 58.824Z" fill="#FF725E"/>
<path d="M81.1898 109.867H86.7987L86.9744 110.862H81.1898V109.867Z" fill="#263238"/>
<path d="M91.1196 109.457H96.7286L96.9043 110.452H91.1196V109.457Z" fill="#263238"/>
<path d="M101.342 109.164H106.951L107.127 110.16H101.342V109.164Z" fill="#263238"/>
<path d="M110.921 108.924H116.53L116.706 109.925H110.921V108.924Z" fill="#263238"/>
<path d="M122.789 108.573H128.398L128.573 109.574H122.789V108.573Z" fill="#263238"/>
<path d="M147.947 148.257C157.835 148.257 165.851 140.241 165.851 130.353C165.851 120.465 157.835 112.449 147.947 112.449C138.059 112.449 130.043 120.465 130.043 130.353C130.043 140.241 138.059 148.257 147.947 148.257Z" fill="#FF725E"/>
<path opacity="0.3" d="M147.947 148.257C157.835 148.257 165.851 140.241 165.851 130.353C165.851 120.465 157.835 112.449 147.947 112.449C138.059 112.449 130.043 120.465 130.043 130.353C130.043 140.241 138.059 148.257 147.947 148.257Z" fill="black"/>
<path d="M147.947 130.33L130.482 134.258C127.672 121.378 138.058 112.426 147.947 112.426" fill="#FF725E"/>
<path d="M147.971 130.33L147.854 112.426C161.039 112.426 167.573 124.481 165.465 134.141L147.971 130.33Z" fill="#FF725E"/>
<path d="M147.971 130.33L147.854 112.426C161.039 112.426 167.573 124.481 165.465 134.141L147.971 130.33Z" fill="#FF725E"/>
<path opacity="0.1" d="M147.971 130.33L147.854 112.426C161.039 112.426 167.573 124.481 165.465 134.141L147.971 130.33Z" fill="black"/>
<path d="M166.314 87.958C165.966 87.7254 165.595 87.5292 165.207 87.3725C164.126 87.0417 162.966 87.0746 161.905 87.4662C160.535 87.8936 159.177 88.9826 157.86 90.3468C156.542 91.711 155.131 93.362 153.07 94.3281C152.076 94.8222 150.957 95.0078 149.856 94.8609C148.863 94.6549 147.903 94.312 147.005 93.8421C146.213 93.4301 145.368 93.1325 144.493 92.9581C143.732 92.8386 142.953 92.936 142.245 93.2391C141.202 93.6814 140.35 94.4777 139.838 95.4874C139.674 95.8667 139.539 96.2582 139.434 96.6583C139.453 96.2348 139.554 95.819 139.733 95.4347C140.223 94.3685 141.085 93.5173 142.157 93.04C142.891 92.7131 143.702 92.5975 144.499 92.7063C145.403 92.874 146.278 93.1697 147.098 93.5845C147.974 94.0387 148.907 94.3697 149.873 94.5681C150.915 94.6978 151.972 94.5186 152.912 94.0529C154.891 93.1278 156.279 91.4885 157.631 90.1477C158.984 88.8069 160.383 87.6769 161.806 87.2612C162.911 86.8757 164.114 86.8757 165.219 87.2612C165.514 87.3749 165.792 87.5285 166.045 87.7179C166.144 87.7865 166.234 87.8672 166.314 87.958V87.958Z" fill="#263238"/>
<path d="M167.83 99.5272C167.83 99.615 161.472 99.6794 153.632 99.6794C145.793 99.6794 139.434 99.615 139.434 99.5272C139.434 99.4394 145.793 99.375 153.632 99.375C161.472 99.375 167.83 99.4453 167.83 99.5272Z" fill="#263238"/>
<path d="M166.25 99.5272C166.168 99.5272 166.097 95.9089 166.097 91.4416C166.097 86.9743 166.168 83.3619 166.25 83.3619C166.332 83.3619 166.402 86.9802 166.402 91.4416C166.402 95.903 166.337 99.5272 166.25 99.5272Z" fill="#263238"/>
<path d="M142.297 92.718C142.297 92.718 142.256 92.6594 142.297 92.5541C142.324 92.4801 142.367 92.413 142.423 92.3573C142.478 92.3017 142.545 92.2589 142.619 92.232C142.731 92.1828 142.853 92.165 142.974 92.1805C143.095 92.1959 143.209 92.2442 143.304 92.3199C143.407 92.4356 143.468 92.5829 143.477 92.7378C143.486 92.8926 143.441 93.0457 143.352 93.1722C143.262 93.2987 143.132 93.3909 142.983 93.4339C142.834 93.4769 142.675 93.4681 142.531 93.4089C142.431 93.3486 142.348 93.2627 142.291 93.1598C142.234 93.0569 142.206 92.9408 142.209 92.8234C142.208 92.7453 142.223 92.6679 142.252 92.5955C142.281 92.5231 142.324 92.4572 142.379 92.4018C142.467 92.3316 142.531 92.3316 142.537 92.3433C142.543 92.355 142.379 92.5131 142.42 92.8117C142.428 92.8885 142.454 92.9623 142.496 93.0274C142.538 93.0924 142.594 93.1468 142.66 93.1864C142.742 93.2071 142.829 93.2026 142.908 93.1734C142.988 93.1443 143.057 93.0918 143.106 93.0229C143.155 92.9541 143.183 92.8719 143.185 92.7872C143.187 92.7026 143.163 92.6193 143.117 92.5482C143.058 92.5 142.989 92.4668 142.914 92.4515C142.84 92.4362 142.763 92.4392 142.69 92.4604C142.391 92.5072 142.338 92.7297 142.297 92.718Z" fill="#263238"/>
<path d="M161.443 86.8455C161.443 86.8455 161.443 86.7753 161.548 86.7167C161.684 86.6483 161.842 86.6357 161.987 86.6816C162.103 86.713 162.207 86.7754 162.29 86.8621C162.373 86.9488 162.43 87.0565 162.456 87.1734C162.465 87.3244 162.422 87.474 162.336 87.5981C162.25 87.7223 162.124 87.8137 161.979 87.8576C161.834 87.9016 161.679 87.8955 161.538 87.8405C161.397 87.7854 161.279 87.6845 161.203 87.554C161.16 87.4411 161.15 87.3189 161.171 87.2004C161.193 87.0818 161.246 86.9713 161.326 86.8807C161.425 86.7637 161.565 86.6901 161.718 86.6757C161.823 86.6757 161.876 86.7109 161.87 86.7284C161.864 86.746 161.648 86.7577 161.501 87.0095C161.461 87.0722 161.435 87.1434 161.427 87.2176C161.419 87.2918 161.428 87.3669 161.454 87.4369C161.506 87.5001 161.575 87.5465 161.653 87.5702C161.731 87.5939 161.814 87.5938 161.892 87.5699C161.97 87.546 162.039 87.4994 162.091 87.4361C162.142 87.3728 162.173 87.2956 162.18 87.2144C162.165 87.1415 162.132 87.0733 162.086 87.0153C162.039 86.9574 161.979 86.9112 161.911 86.8807C161.653 86.7518 161.472 86.8865 161.443 86.8455Z" fill="#263238"/>
<path d="M165.746 67.6825C165.746 67.7645 159.587 67.8347 151.993 67.8347C144.399 67.8347 138.24 67.7645 138.24 67.6825C138.24 67.6005 144.393 67.5303 151.993 67.5303C159.593 67.5303 165.746 67.6122 165.746 67.6825Z" fill="#263238"/>
<path d="M165.746 71.5175C165.746 71.6053 159.587 71.6697 151.993 71.6697C144.399 71.6697 138.24 71.6053 138.24 71.5175C138.24 71.4296 144.393 71.3652 151.993 71.3652C159.593 71.3652 165.746 71.4355 165.746 71.5175Z" fill="#263238"/>
<path d="M165.746 75.3407C165.746 75.4227 159.587 75.4929 151.993 75.4929C144.399 75.4929 138.24 75.4227 138.24 75.3407C138.24 75.2587 144.393 75.1885 151.993 75.1885C159.593 75.1885 165.746 75.2529 165.746 75.3407Z" fill="#263238"/>
<path d="M165.746 79.1581C165.746 79.2459 159.587 79.3103 151.993 79.3103C144.399 79.3103 138.24 79.2459 138.24 79.1581C138.24 79.0703 144.393 79.0059 151.993 79.0059C159.593 79.0059 165.746 79.0761 165.746 79.1581Z" fill="#263238"/>
<path d="M152.877 60.7094H138.24V61.9447H152.877V60.7094Z" fill="#263238"/>
<path d="M92.4545 122.045H77.8173V123.28H92.4545V122.045Z" fill="#263238"/>
<path d="M117.871 129.206C117.871 129.293 108.989 129.358 98.0343 129.358C87.0798 129.358 78.1921 129.293 78.1921 129.206C78.1921 129.118 87.0739 129.053 98.0343 129.053C108.995 129.053 117.871 129.124 117.871 129.206Z" fill="#263238"/>
<path d="M118.105 132.672C118.105 132.754 109.065 132.824 97.9172 132.824C86.7694 132.824 77.7295 132.754 77.7295 132.672C77.7295 132.59 86.7636 132.52 97.9172 132.52C109.071 132.52 118.105 132.602 118.105 132.672Z" fill="#263238"/>
<path d="M118.567 135.939C118.567 136.021 109.475 136.091 98.2626 136.091C87.0505 136.091 77.9579 136.021 77.9579 135.939C77.9579 135.857 87.0505 135.787 98.2626 135.787C109.475 135.787 118.567 135.851 118.567 135.939Z" fill="#263238"/>
<path d="M99.0765 139.417C99.0765 139.499 94.3926 139.569 88.6313 139.569C82.8701 139.569 78.1921 139.499 78.1921 139.417C78.1921 139.335 82.876 139.264 88.6313 139.264C94.3867 139.264 99.0765 139.335 99.0765 139.417Z" fill="#263238"/>
<path d="M35.3167 234.195V228.926L25.4044 228.838L25.3224 236.584L25.9079 236.625C28.6421 236.795 39.8191 237.293 41.6517 236.754C43.7243 236.145 35.3167 234.195 35.3167 234.195Z" fill="#FF725E"/>
<path d="M41.9152 236.268C41.9152 236.362 38.209 236.438 33.6363 236.438C29.0637 236.438 25.3517 236.362 25.3517 236.268C25.3517 236.174 29.0637 236.098 33.6363 236.098C38.209 236.098 41.9152 236.174 41.9152 236.268Z" fill="#263238"/>
<path d="M35.4923 235.279C35.4104 235.232 35.4923 234.945 35.6914 234.693C35.8905 234.441 36.1656 234.277 36.2242 234.342C36.2827 234.406 36.1539 234.646 35.9607 234.927C35.7675 235.208 35.5743 235.325 35.4923 235.279Z" fill="#263238"/>
<path d="M36.1247 235.624C36.0368 235.589 36.0837 235.273 36.2769 234.945C36.4701 234.617 36.7277 234.418 36.798 234.476C36.8682 234.535 36.7511 234.81 36.5696 235.115C36.3881 235.419 36.2125 235.659 36.1247 235.624Z" fill="#263238"/>
<path d="M28.3318 236.233C28.2908 236.262 28.1386 236.122 27.922 235.888C27.6583 235.582 27.3662 235.301 27.0496 235.05C26.7339 234.818 26.3659 234.667 25.9782 234.611C25.6796 234.57 25.4863 234.611 25.4688 234.564C25.4512 234.517 25.6386 234.395 25.984 234.371C26.4392 234.358 26.8853 234.501 27.2487 234.775C27.595 235.041 27.8889 235.368 28.1152 235.741C28.2967 236.016 28.3787 236.204 28.3318 236.233Z" fill="#263238"/>
<path d="M35.5216 234.283C35.5685 234.359 35.3928 234.547 35.1118 234.646C34.8308 234.746 34.579 234.711 34.5673 234.617C34.5556 234.523 34.7488 234.418 35.0005 234.33C35.2523 234.242 35.4689 234.201 35.5216 234.283Z" fill="#263238"/>
<path d="M35.3577 233.768C35.3577 233.862 35.1001 233.944 34.7722 233.95C34.4443 233.955 34.1867 233.879 34.1867 233.786C34.1867 233.692 34.456 233.616 34.7722 233.61C35.0884 233.604 35.3577 233.674 35.3577 233.768Z" fill="#FF725E"/>
<path d="M41.9152 236.268C41.9152 236.362 38.209 236.438 33.6363 236.438C29.0637 236.438 25.3517 236.362 25.3517 236.268C25.3517 236.174 29.0637 236.098 33.6363 236.098C38.209 236.098 41.9152 236.174 41.9152 236.268Z" fill="#263238"/>
<path d="M35.4923 235.279C35.4104 235.232 35.4923 234.945 35.6914 234.693C35.8905 234.441 36.1656 234.277 36.2242 234.342C36.2827 234.406 36.1539 234.646 35.9607 234.927C35.7675 235.208 35.5743 235.325 35.4923 235.279Z" fill="#263238"/>
<path d="M36.1247 235.624C36.0368 235.589 36.0837 235.273 36.2769 234.945C36.4701 234.617 36.7277 234.418 36.798 234.476C36.8682 234.535 36.7511 234.81 36.5696 235.115C36.3881 235.419 36.2125 235.659 36.1247 235.624Z" fill="#263238"/>
<path d="M28.3318 236.233C28.2908 236.262 28.1386 236.122 27.922 235.888C27.6583 235.582 27.3662 235.301 27.0496 235.05C26.7339 234.818 26.3659 234.667 25.9782 234.611C25.6796 234.57 25.4863 234.611 25.4688 234.564C25.4512 234.517 25.6386 234.395 25.984 234.371C26.4392 234.358 26.8853 234.501 27.2487 234.775C27.595 235.041 27.8889 235.368 28.1152 235.741C28.2967 236.016 28.3787 236.204 28.3318 236.233Z" fill="#263238"/>
<path d="M35.5216 234.283C35.5685 234.359 35.3928 234.547 35.1118 234.646C34.8308 234.746 34.579 234.711 34.5673 234.617C34.5556 234.523 34.7488 234.418 35.0005 234.33C35.2523 234.242 35.4689 234.201 35.5216 234.283Z" fill="#263238"/>
<path d="M35.3577 233.768C35.3577 233.862 35.1001 233.944 34.7722 233.95C34.4443 233.955 34.1867 233.879 34.1867 233.786C34.1867 233.692 34.456 233.616 34.7722 233.61C35.0884 233.604 35.3577 233.674 35.3577 233.768Z" fill="#263238"/>
<path d="M45.7735 232.322L47.3368 227.269L37.887 224.271L35.545 231.643L36.1305 231.865C38.6891 232.837 49.2221 236.619 51.1308 236.649C53.2268 236.672 45.7735 232.322 45.7735 232.322Z" fill="#FF725E"/>
<path d="M51.4645 236.251C51.4645 236.344 47.8696 235.32 43.5019 233.961C39.1341 232.603 35.6153 231.438 35.6446 231.35C35.6739 231.262 39.2336 232.287 43.6072 233.639C47.9808 234.992 51.4938 236.163 51.4645 236.251Z" fill="#263238"/>
<path d="M45.6213 233.405C45.5569 233.335 45.7091 233.089 45.9902 232.884C46.2712 232.679 46.5756 232.626 46.6049 232.708C46.6342 232.79 46.4468 232.978 46.1892 233.165C45.9316 233.352 45.6857 233.469 45.6213 233.405Z" fill="#263238"/>
<path d="M46.119 233.926C46.0487 233.868 46.1834 233.575 46.4703 233.341C46.7572 233.106 47.0558 232.972 47.1085 233.048C47.1612 233.124 46.9621 233.352 46.6986 233.592C46.4351 233.832 46.1951 233.961 46.119 233.926Z" fill="#263238"/>
<path d="M38.5076 232.205C38.4608 232.205 38.3612 232.047 38.2266 231.754C38.0658 231.385 37.8697 231.032 37.6411 230.7C37.4086 230.386 37.1032 230.133 36.7512 229.962C36.476 229.839 36.2769 229.816 36.2769 229.769C36.2769 229.722 36.4877 229.652 36.8273 229.734C37.264 229.858 37.6458 230.126 37.9104 230.495C38.1611 230.849 38.3456 231.246 38.4549 231.666C38.531 231.982 38.5486 232.205 38.5076 232.205Z" fill="#455A64"/>
<path d="M45.9433 232.462C45.9433 232.55 45.7443 232.679 45.4457 232.691C45.1471 232.702 44.9129 232.591 44.9304 232.498C44.948 232.404 45.1705 232.363 45.434 232.351C45.6974 232.339 45.8965 232.369 45.9433 232.462Z" fill="#263238"/>
<path d="M45.9433 231.93C45.9433 232.017 45.6506 232.017 45.3285 231.93C45.0065 231.842 44.7782 231.684 44.8075 231.596C44.8367 231.508 45.1178 231.514 45.4222 231.596C45.7267 231.678 45.9667 231.836 45.9433 231.93Z" fill="#263238"/>
<path d="M52.5008 129.528L39.4912 128.526L19.7837 126.928L21.9851 232.79L39.099 232.568C39.099 232.568 39.099 231.397 39.058 229.324L49.0933 232.07C49.0933 232.07 58.8709 199.037 62.2024 185.483C64.9834 174.189 52.5008 129.528 52.5008 129.528ZM38.8706 212.884C38.613 188.445 38.3144 146.887 38.6716 141.805C38.6716 141.805 48.2033 178.393 48.2911 181.279C48.3497 183.024 43.0393 199.909 38.8706 212.884Z" fill="#455A64"/>
<path d="M39.1927 228.557C39.1927 228.651 35.3635 228.727 30.6445 228.727C25.9255 228.727 22.0905 228.651 22.0905 228.557C22.0905 228.464 25.9196 228.387 30.6445 228.387C35.3694 228.387 39.1927 228.464 39.1927 228.557Z" fill="#455A64"/>
<path d="M39.0404 224.752C39.5757 224.878 40.1003 225.047 40.6095 225.255L44.5264 226.619L48.4434 227.989C48.9973 228.148 49.5346 228.36 50.0476 228.622C49.4756 228.542 48.9128 228.407 48.3672 228.218C47.3485 227.919 45.9492 227.474 44.4152 226.941C42.8812 226.409 41.4878 225.882 40.5276 225.478C40.0006 225.306 39.5001 225.061 39.0404 224.752V224.752Z" fill="#455A64"/>
<path d="M54.7198 180.951C53.6614 181.198 52.5803 181.335 51.4938 181.361C50.4162 181.499 49.3272 181.524 48.2443 181.437C49.3022 181.186 50.3834 181.047 51.4704 181.021C52.5481 180.884 53.6372 180.86 54.7198 180.951V180.951Z" fill="#455A64"/>
<path d="M53.6015 182.872C52.7599 182.8 51.9312 182.619 51.1366 182.333C50.3097 182.152 49.5103 181.863 48.7595 181.472C49.6036 181.536 50.4349 181.716 51.2303 182.005C52.5652 182.391 53.6308 182.778 53.6015 182.872Z" fill="#455A64"/>
<path d="M40.2465 128.661C40.3252 129.329 40.3545 130.003 40.3344 130.675C40.3344 131.922 40.3344 133.644 40.3344 135.546C40.3344 136.489 40.3344 137.391 40.2992 138.222C40.3207 138.971 40.1809 139.716 39.8894 140.406C39.6817 140.876 39.3498 141.281 38.9292 141.577C38.7858 141.696 38.6146 141.777 38.4315 141.811C38.4315 141.811 38.5955 141.706 38.8589 141.483C39.2286 141.166 39.5159 140.765 39.6962 140.312C39.9403 139.642 40.0497 138.929 40.0182 138.216C40.0182 137.379 40.0182 136.46 40.0182 135.535C40.0182 133.632 40.065 131.911 40.1002 130.669C40.0983 129.997 40.1472 129.326 40.2465 128.661V128.661Z" fill="#455A64"/>
<path d="M30.4513 128.064C30.4576 128.15 30.4576 128.236 30.4513 128.322C30.4513 128.509 30.4513 128.761 30.4513 129.083C30.4513 129.762 30.3986 130.745 30.3576 132.01C30.2756 134.557 30.1585 138.216 30.0122 142.73C29.737 151.782 29.456 164.294 29.3857 178.106C29.3154 191.917 29.4735 204.453 29.655 213.498C29.7546 218.013 29.8307 221.695 29.8892 224.219C29.8892 225.478 29.9361 226.455 29.9536 227.146C29.9536 227.468 29.9536 227.732 29.9536 227.907C29.9599 227.993 29.9599 228.079 29.9536 228.165C29.9473 228.079 29.9473 227.993 29.9536 227.907C29.9536 227.726 29.9536 227.474 29.9126 227.152C29.9126 226.467 29.8482 225.489 29.7955 224.225C29.696 221.695 29.5789 218.03 29.4618 213.504C29.2218 204.447 29.0344 191.935 29.1047 178.106C29.1749 164.276 29.4911 151.759 29.819 142.725C29.9829 138.199 30.1351 134.528 30.2639 132.004C30.3283 130.751 30.381 129.774 30.4162 129.077C30.4162 128.755 30.4513 128.491 30.463 128.316C30.4531 128.232 30.4492 128.148 30.4513 128.064V128.064Z" fill="#455A64"/>
<path d="M48.2384 130.728C48.274 130.805 48.3033 130.886 48.3263 130.968C48.379 131.144 48.4551 131.378 48.5487 131.682C48.7361 132.309 49.0347 133.234 49.3626 134.44C50.0359 136.846 50.9434 140.342 51.9563 144.692C52.9692 149.042 54.0933 154.229 55.2643 160.014C56.4353 165.799 57.6707 172.169 58.7772 178.89C58.9178 179.733 59.0466 180.571 59.1578 181.408C59.1578 181.63 59.1988 181.859 59.1988 182.075L59.0934 182.696C59.0173 183.112 58.9587 183.527 58.8651 183.931C58.5313 185.559 58.1566 187.151 57.7526 188.709C56.9564 191.824 56.1133 194.804 55.2819 197.638C53.6308 203.305 52.0383 208.375 50.6858 212.632C49.3333 216.888 48.2033 220.314 47.407 222.679L46.482 225.401L46.2302 226.11C46.2084 226.191 46.1769 226.27 46.1365 226.344C46.1518 226.261 46.1734 226.178 46.2009 226.098C46.2595 225.923 46.3297 225.688 46.4234 225.384L47.2958 222.644L50.4809 212.568C51.8041 208.305 53.3732 203.229 55.0125 197.561C55.8322 194.728 56.6695 191.742 57.4657 188.633C57.8639 187.081 58.2386 185.495 58.5723 183.873C58.666 183.469 58.7187 183.059 58.789 182.649L58.8943 182.034C58.8943 181.835 58.8651 181.642 58.8534 181.449C58.7421 180.623 58.6192 179.786 58.4786 178.949C57.3662 172.233 56.1367 165.863 54.9657 160.078C53.7947 154.294 52.735 149.065 51.7514 144.739C50.7678 140.412 49.8837 136.881 49.2455 134.469C48.941 133.263 48.66 132.332 48.4902 131.7L48.297 130.98C48.2682 130.898 48.2486 130.814 48.2384 130.728V130.728Z" fill="#455A64"/>
<path d="M38.8179 210.735C38.8651 211.007 38.8827 211.284 38.8706 211.561C38.8706 212.146 38.8706 212.913 38.8999 213.821C38.8999 215.782 38.9702 218.387 39.0112 221.262C39.0521 224.137 39.1634 226.742 39.2161 228.704C39.2161 229.611 39.2629 230.372 39.2805 230.964C39.3069 231.238 39.3069 231.515 39.2805 231.789C39.2159 231.521 39.1805 231.246 39.1751 230.969C39.1282 230.437 39.0756 229.67 39.017 228.715C38.8999 226.813 38.7887 224.178 38.7243 221.268C38.6599 218.358 38.6716 215.723 38.7243 213.821C38.7243 212.866 38.7652 212.064 38.7887 211.561C38.7768 211.285 38.7866 211.009 38.8179 210.735Z" fill="#455A64"/>
<path d="M52.5008 129.528L39.4912 128.526L19.7837 126.928L21.9851 232.79L39.099 232.568C39.099 232.568 39.099 231.397 39.058 229.324L49.0933 232.07C49.0933 232.07 58.8709 199.037 62.2024 185.483C64.9834 174.189 52.5008 129.528 52.5008 129.528ZM38.8706 212.884C38.613 188.445 38.3144 146.887 38.6716 141.805C38.6716 141.805 48.2033 178.393 48.2911 181.279C48.3497 183.024 43.0393 199.909 38.8706 212.884Z" fill="#263238"/>
<path d="M39.1927 228.557C39.1927 228.651 35.3635 228.727 30.6445 228.727C25.9255 228.727 22.0905 228.651 22.0905 228.557C22.0905 228.464 25.9196 228.387 30.6445 228.387C35.3694 228.387 39.1927 228.464 39.1927 228.557Z" fill="#455A64"/>
<path d="M39.0404 224.752C39.5757 224.878 40.1003 225.047 40.6095 225.255L44.5264 226.619L48.4434 227.989C48.9973 228.148 49.5346 228.36 50.0476 228.622C49.4756 228.542 48.9128 228.407 48.3672 228.218C47.3485 227.919 45.9492 227.474 44.4152 226.941C42.8812 226.409 41.4878 225.882 40.5276 225.478C40.0006 225.306 39.5001 225.061 39.0404 224.752V224.752Z" fill="#455A64"/>
<path d="M54.7198 180.951C53.6614 181.198 52.5803 181.335 51.4938 181.361C50.4162 181.499 49.3272 181.524 48.2443 181.437C49.3022 181.186 50.3834 181.047 51.4704 181.021C52.5481 180.884 53.6372 180.86 54.7198 180.951V180.951Z" fill="#455A64"/>
<path d="M53.6015 182.872C52.7599 182.8 51.9312 182.619 51.1366 182.333C50.3097 182.152 49.5103 181.863 48.7595 181.472C49.6036 181.536 50.4349 181.716 51.2303 182.005C52.5652 182.391 53.6308 182.778 53.6015 182.872Z" fill="#455A64"/>
<path d="M40.2465 128.661C40.3252 129.329 40.3545 130.003 40.3344 130.675C40.3344 131.922 40.3344 133.644 40.3344 135.546C40.3344 136.489 40.3344 137.391 40.2992 138.222C40.3207 138.971 40.1809 139.716 39.8894 140.406C39.6817 140.876 39.3498 141.281 38.9292 141.577C38.7858 141.696 38.6146 141.777 38.4315 141.811C38.4315 141.811 38.5955 141.706 38.8589 141.483C39.2286 141.166 39.5159 140.765 39.6962 140.312C39.9403 139.642 40.0497 138.929 40.0182 138.216C40.0182 137.379 40.0182 136.46 40.0182 135.535C40.0182 133.632 40.065 131.911 40.1002 130.669C40.0983 129.997 40.1472 129.326 40.2465 128.661V128.661Z" fill="#455A64"/>
<path d="M30.4513 128.064C30.4576 128.15 30.4576 128.236 30.4513 128.322C30.4513 128.509 30.4513 128.761 30.4513 129.083C30.4513 129.762 30.3986 130.745 30.3576 132.01C30.2756 134.557 30.1585 138.216 30.0122 142.73C29.737 151.782 29.456 164.294 29.3857 178.106C29.3154 191.917 29.4735 204.453 29.655 213.498C29.7546 218.013 29.8307 221.695 29.8892 224.219C29.8892 225.478 29.9361 226.455 29.9536 227.146C29.9536 227.468 29.9536 227.732 29.9536 227.907C29.9599 227.993 29.9599 228.079 29.9536 228.165C29.9473 228.079 29.9473 227.993 29.9536 227.907C29.9536 227.726 29.9536 227.474 29.9126 227.152C29.9126 226.467 29.8482 225.489 29.7955 224.225C29.696 221.695 29.5789 218.03 29.4618 213.504C29.2218 204.447 29.0344 191.935 29.1047 178.106C29.1749 164.276 29.4911 151.759 29.819 142.725C29.9829 138.199 30.1351 134.528 30.2639 132.004C30.3283 130.751 30.381 129.774 30.4162 129.077C30.4162 128.755 30.4513 128.491 30.463 128.316C30.4531 128.232 30.4492 128.148 30.4513 128.064V128.064Z" fill="#455A64"/>
<path d="M48.2384 130.728C48.274 130.805 48.3033 130.886 48.3263 130.968C48.379 131.144 48.4551 131.378 48.5487 131.682C48.7361 132.309 49.0347 133.234 49.3626 134.44C50.0359 136.846 50.9434 140.342 51.9563 144.692C52.9692 149.042 54.0933 154.229 55.2643 160.014C56.4353 165.799 57.6707 172.169 58.7772 178.89C58.9178 179.733 59.0466 180.571 59.1578 181.408C59.1578 181.63 59.1988 181.859 59.1988 182.075L59.0934 182.696C59.0173 183.112 58.9587 183.527 58.8651 183.931C58.5313 185.559 58.1566 187.151 57.7526 188.709C56.9564 191.824 56.1133 194.804 55.2819 197.638C53.6308 203.305 52.0383 208.375 50.6858 212.632C49.3333 216.888 48.2033 220.314 47.407 222.679L46.482 225.401L46.2302 226.11C46.2084 226.191 46.1769 226.27 46.1365 226.344C46.1518 226.261 46.1734 226.178 46.2009 226.098C46.2595 225.923 46.3297 225.688 46.4234 225.384L47.2958 222.644L50.4809 212.568C51.8041 208.305 53.3732 203.229 55.0125 197.561C55.8322 194.728 56.6695 191.742 57.4657 188.633C57.8639 187.081 58.2386 185.495 58.5723 183.873C58.666 183.469 58.7187 183.059 58.789 182.649L58.8943 182.034C58.8943 181.835 58.8651 181.642 58.8534 181.449C58.7421 180.623 58.6192 179.786 58.4786 178.949C57.3662 172.233 56.1367 165.863 54.9657 160.078C53.7947 154.294 52.735 149.065 51.7514 144.739C50.7678 140.412 49.8837 136.881 49.2455 134.469C48.941 133.263 48.66 132.332 48.4902 131.7L48.297 130.98C48.2682 130.898 48.2486 130.814 48.2384 130.728V130.728Z" fill="#455A64"/>
<path d="M38.8179 210.735C38.8651 211.007 38.8827 211.284 38.8706 211.561C38.8706 212.146 38.8706 212.913 38.8999 213.821C38.8999 215.782 38.9702 218.387 39.0112 221.262C39.0521 224.137 39.1634 226.742 39.2161 228.704C39.2161 229.611 39.2629 230.372 39.2805 230.964C39.3069 231.238 39.3069 231.515 39.2805 231.789C39.2159 231.521 39.1805 231.246 39.1751 230.969C39.1282 230.437 39.0756 229.67 39.017 228.715C38.8999 226.813 38.7887 224.178 38.7243 221.268C38.6599 218.358 38.6716 215.723 38.7243 213.821C38.7243 212.866 38.7652 212.064 38.7887 211.561C38.7768 211.285 38.7866 211.009 38.8179 210.735Z" fill="#455A64"/>
<path d="M30.0883 78.7189L40.0416 79.4566C40.1763 78.2857 40.3695 73.8301 40.3695 73.8301C40.3695 73.8301 44.5206 73.4495 44.825 69.3394C45.1295 65.2293 45.0007 55.7385 45.0007 55.7385C42.7251 54.5883 40.1836 54.0671 37.639 54.2287C35.0944 54.3903 32.6392 55.2289 30.5274 56.6577L29.8892 57.091L30.0883 78.7189Z" fill="#E5BAAB"/>
<path d="M43.5838 62.7469C43.5049 62.6638 43.4521 62.5595 43.432 62.4468C43.4118 62.334 43.4251 62.2179 43.4703 62.1126C43.5154 62.0074 43.5905 61.9177 43.6861 61.8547C43.7818 61.7917 43.8938 61.7581 44.0083 61.7581C44.1228 61.7581 44.2348 61.7917 44.3304 61.8547C44.4261 61.9177 44.5011 62.0074 44.5463 62.1126C44.5915 62.2179 44.6048 62.334 44.5846 62.4468C44.5644 62.5595 44.5116 62.6638 44.4328 62.7469C44.3781 62.8044 44.3122 62.8503 44.2393 62.8816C44.1663 62.9129 44.0877 62.9291 44.0083 62.9291C43.9289 62.9291 43.8503 62.9129 43.7773 62.8816C43.7043 62.8503 43.6385 62.8044 43.5838 62.7469V62.7469Z" fill="#263238"/>
<path d="M44.6377 61.8686C44.5674 61.9388 44.1868 61.6051 43.6189 61.5641C43.051 61.5231 42.6236 61.7924 42.565 61.7163C42.5065 61.6402 42.606 61.5583 42.7992 61.4353C43.0483 61.2717 43.3455 61.1974 43.6423 61.2245C43.9414 61.2424 44.2258 61.3599 44.4503 61.5583C44.6201 61.7046 44.6728 61.8276 44.6377 61.8686Z" fill="#263238"/>
<path d="M38.0802 61.9622C38.1729 62.03 38.2437 62.1235 38.2837 62.2311C38.3237 62.3387 38.3311 62.4557 38.3051 62.5675C38.2791 62.6794 38.2209 62.7811 38.1375 62.8601C38.0542 62.939 37.9494 62.9917 37.8364 63.0117C37.7233 63.0316 37.6068 63.0178 37.5015 62.972C37.3962 62.9263 37.3067 62.8506 37.2441 62.7544C37.1815 62.6581 37.1485 62.5456 37.1494 62.4308C37.1502 62.316 37.1848 62.2039 37.2488 62.1086C37.2927 62.0432 37.3494 61.9873 37.4155 61.9443C37.4816 61.9013 37.5557 61.8721 37.6333 61.8584C37.711 61.8448 37.7906 61.8469 37.8673 61.8647C37.9441 61.8826 38.0165 61.9157 38.0802 61.9622V61.9622Z" fill="#263238"/>
<path d="M38.4549 61.9915C38.3846 62.056 38.0041 61.7222 37.4362 61.6812C36.8682 61.6403 36.4408 61.9154 36.3823 61.8393C36.3237 61.7632 36.4233 61.6754 36.6106 61.5524C36.8645 61.3948 37.1615 61.321 37.4596 61.3417C37.7577 61.3634 38.041 61.4804 38.2676 61.6754C38.4373 61.8276 38.49 61.9623 38.4549 61.9915Z" fill="#263238"/>
<path d="M40.4397 66.8043C40.7392 66.7116 41.0513 66.6662 41.3648 66.6696C41.517 66.6696 41.64 66.6403 41.6575 66.5584C41.6724 66.4072 41.6439 66.2549 41.5756 66.1192L41.2009 64.9483C40.8403 63.9471 40.5757 62.9139 40.4105 61.8627C40.8641 62.824 41.2268 63.8257 41.4936 64.8546L41.8449 66.0256C41.9294 66.2193 41.9459 66.436 41.8917 66.6403C41.8671 66.6951 41.8299 66.7433 41.7831 66.781C41.7363 66.8186 41.6812 66.8447 41.6224 66.857C41.5388 66.8678 41.4542 66.8678 41.3707 66.857C41.0595 66.8892 40.7452 66.8714 40.4397 66.8043V66.8043Z" fill="#263238"/>
<path d="M38.5603 67.3137C37.9748 66.9272 40.1294 68.2797 41.2887 68.2973C41.0782 68.5826 40.7769 68.7878 40.4343 68.8793C40.0917 68.9708 39.7282 68.9431 39.4034 68.8008C38.1973 68.268 38.5603 67.3137 38.5603 67.3137Z" fill="white"/>
<path d="M40.3461 73.7715C38.4449 73.6912 36.6107 73.0472 35.0767 71.9214C35.0767 71.9214 36.1598 74.9601 40.2875 74.8488L40.3461 73.7715Z" fill="#D78776"/>
<path d="M30.6738 60.7386C30.5801 60.7035 27.6175 60.3171 27.8986 63.8183C28.1796 67.3195 31.6223 65.8733 31.6164 65.7738C31.6106 65.6743 30.6738 60.7386 30.6738 60.7386Z" fill="#E5BAAB"/>
<path d="M30.4161 64.6321C30.4161 64.6321 30.3635 64.6789 30.2639 64.7375C30.1229 64.8098 29.96 64.8265 29.8072 64.7843C29.5702 64.6578 29.3707 64.4711 29.2288 64.2429C29.087 64.0147 29.0078 63.7531 28.9993 63.4845C28.967 63.1857 29.003 62.8834 29.1047 62.6005C29.1281 62.4885 29.1781 62.3837 29.2504 62.2951C29.3228 62.2064 29.4153 62.1365 29.5204 62.0911C29.5895 62.0688 29.6642 62.0705 29.7322 62.0961C29.8002 62.1216 29.8576 62.1693 29.8951 62.2316C29.9478 62.3253 29.936 62.3955 29.9536 62.4014C29.9712 62.4072 30.0239 62.337 29.9536 62.1965C29.9292 62.1105 29.8753 62.0359 29.8014 61.9857C29.6975 61.9239 29.5744 61.903 29.4559 61.9271C29.3165 61.9666 29.1895 62.0412 29.087 62.1437C28.9845 62.2462 28.91 62.3732 28.8705 62.5126C28.7442 62.8262 28.6979 63.1662 28.7358 63.5021C28.7423 63.8149 28.8415 64.1187 29.0207 64.3751C29.2 64.6315 29.4513 64.8289 29.7428 64.9424C29.8388 64.9625 29.9381 64.9609 30.0333 64.9376C30.1286 64.9143 30.2174 64.8699 30.2932 64.8077C30.4162 64.7199 30.4337 64.6379 30.4161 64.6321Z" fill="#D78776"/>
<path d="M45.2642 54.2573C45.5011 54.2509 45.7335 54.1902 45.9432 54.0797C46.1529 53.9692 46.3345 53.812 46.4737 53.6201C46.613 53.4283 46.7062 53.207 46.7463 52.9733C46.7864 52.7397 46.7722 52.5 46.7048 52.2727C46.6374 52.0454 46.5186 51.8367 46.3577 51.6627C46.1967 51.4886 45.9979 51.3539 45.7766 51.269C45.5552 51.1841 45.3173 51.1512 45.0813 51.1729C44.8452 51.1946 44.6173 51.2703 44.4152 51.3942C44.9048 50.9878 45.3037 50.4832 45.5862 49.9129C45.7228 49.6253 45.7679 49.3028 45.7156 48.9887C45.6633 48.6747 45.5159 48.3842 45.2934 48.1565C45.0358 47.986 44.7377 47.8865 44.4294 47.868C44.121 47.8495 43.8131 47.9126 43.537 48.0511C42.6646 48.4258 41.9737 49.1635 41.0779 49.4738C40.1821 49.7841 39.1809 49.6319 38.2207 49.6729C37.1433 49.6921 36.0998 50.0529 35.2406 50.7033C34.5085 51.2786 34.0347 52.1209 33.9232 53.0453C33.8082 52.8873 33.6809 52.7385 33.5427 52.6003C33.0873 52.0569 32.473 51.6699 31.7862 51.4938C31.7452 51.5699 32.5473 52.0148 33.3143 52.8111C33.5231 53.0109 33.7187 53.2241 33.8998 53.4493C32.5649 53.2853 31.0953 53.2736 30.0414 54.105C29.6145 54.4856 29.2771 54.9559 29.0534 55.4823C28.8297 56.0087 28.7252 56.5781 28.7475 57.1496C28.7475 58.2854 29.2159 59.3686 29.5496 60.4576C29.6304 60.7661 29.7695 61.0563 29.9595 61.3124L30.463 64.2398L32.2956 64.2047L32.1785 58.0629C32.1785 58.0629 31.9911 55.4751 34.216 55.721C36.4408 55.9669 39.4854 58.4552 43.8063 57.8229C44.5153 57.7834 45.206 57.5832 45.8262 57.2374C46.1264 57.0472 46.3704 56.7804 46.5331 56.4644C46.6957 56.1484 46.771 55.7948 46.7513 55.4399C46.7087 55.0869 46.5287 54.7648 46.2504 54.5435C45.9721 54.3221 45.6177 54.2193 45.2642 54.2573V54.2573Z" fill="#263238"/>
<path d="M82.5013 84.5679L82.7706 82.7061C83.0458 81.6876 83.2184 80.6441 83.2858 79.5913C83.3299 79.0679 83.2824 78.5409 83.1453 78.0339C83.0072 77.3957 82.7785 76.7806 82.4661 76.2072C82.1266 75.7095 82.5715 75.0362 83.0516 75.2411C83.5317 75.446 84.5329 76.7692 84.8549 78.6779C85.1769 80.5866 86.6817 77.9402 87.2437 76.9859C87.8058 76.0315 89.6969 73.1568 90.1302 73.0982C90.7625 73.0104 90.9733 73.6837 90.3819 74.6146C89.7906 75.5456 88.2332 78.5023 88.7543 78.7716C89.1444 78.7093 89.5433 78.7292 89.9253 78.8301C89.9869 78.8482 90.0413 78.885 90.0812 78.9353C90.121 78.9856 90.1443 79.0471 90.1477 79.1112C90.1456 79.4065 90.177 79.7012 90.2414 79.9894C90.2414 79.9894 91.0084 79.8138 91.1665 80.1475C91.2734 80.4903 91.3229 80.8483 91.3129 81.2072C91.3129 81.2072 91.8984 81.0082 92.1794 81.2072C92.7649 81.6815 92.0155 82.4953 92.0155 82.4953C90.2915 84.5517 88.4396 86.4975 86.4709 88.3209L82.4369 84.4333" fill="#E5BAAB"/>
<path d="M90.0072 80.1183C89.8351 80.4802 89.6035 80.8107 89.3222 81.0961C89.088 81.3771 88.7953 81.6816 88.4498 82.0504C88.2697 82.2421 88.0738 82.4183 87.8643 82.5774C87.7353 82.6799 87.5795 82.7433 87.4155 82.7599C87.2516 82.7765 87.0862 82.7456 86.9393 82.671C86.8591 82.6241 86.7913 82.5586 86.7414 82.4803C86.6915 82.4019 86.661 82.3127 86.6524 82.2202C86.6406 82.0552 86.6772 81.8904 86.7578 81.746C86.902 81.5285 87.0584 81.3194 87.2262 81.1195C87.5248 80.7448 87.7707 80.3935 87.9756 80.089C88.1722 79.7448 88.3974 79.4177 88.6489 79.1113C88.5513 79.5007 88.3848 79.8696 88.1571 80.2003C87.9444 80.5767 87.7098 80.9403 87.4545 81.2893C87.299 81.476 87.1544 81.6715 87.0212 81.8748C86.9159 82.068 86.9217 82.308 87.0915 82.3959C87.1871 82.4362 87.2917 82.4504 87.3945 82.437C87.4974 82.4236 87.5949 82.3832 87.677 82.3197C87.8713 82.1726 88.0552 82.0122 88.2273 81.8396C88.5786 81.5118 88.8831 81.2015 89.1349 80.938C89.3971 80.6359 89.6894 80.3612 90.0072 80.1183Z" fill="#D78776"/>
<path d="M91.0318 81.3186C90.8596 81.631 90.6382 81.9137 90.3761 82.1558C90.1117 82.4392 89.8237 82.6997 89.5154 82.9345C89.3303 83.0745 89.1346 83.1998 88.9299 83.3092C88.8083 83.3702 88.6779 83.4117 88.5435 83.4322C88.4621 83.4454 88.3788 83.4413 88.2991 83.4201C88.2194 83.3989 88.1451 83.3611 88.081 83.3092C87.9728 83.1974 87.9045 83.0531 87.8865 82.8987C87.8685 82.7442 87.9019 82.5881 87.9814 82.4544C88.1 82.2458 88.2392 82.0496 88.3971 81.8689C88.6547 81.5703 88.8948 81.2834 89.1348 80.9965C89.5623 80.5047 89.8433 80.2178 89.8784 80.2413C89.7239 80.5627 89.527 80.862 89.2929 81.1312L88.6372 82.0621C88.4988 82.2278 88.3736 82.404 88.2625 82.5891C88.2173 82.6637 88.1964 82.7506 88.2027 82.8376C88.209 82.9247 88.2422 83.0076 88.2976 83.075C88.403 83.1746 88.6255 83.1336 88.8187 83.0399C89.0109 82.9404 89.1966 82.8289 89.3749 82.7062C89.6791 82.4891 89.9704 82.2545 90.2473 82.0036C90.48 81.7442 90.7434 81.5142 91.0318 81.3186V81.3186Z" fill="#D78776"/>
<path d="M91.2719 82.993C91.3011 82.993 91.2719 83.2565 90.9967 83.5785C90.9133 83.6782 90.8107 83.7601 90.695 83.8194C90.5794 83.8788 90.453 83.9143 90.3234 83.9239C90.1557 83.9253 89.9926 83.8696 89.8608 83.7658C89.7882 83.705 89.7301 83.6288 89.6906 83.5427C89.6511 83.4567 89.6313 83.3629 89.6325 83.2682C89.6789 82.9698 89.7997 82.6879 89.9838 82.4485C90.1073 82.2553 90.2422 82.0695 90.3878 81.8923C90.6395 81.5878 90.821 81.4297 90.8562 81.459C90.8913 81.4883 90.7625 81.6874 90.5634 82.0445C90.4463 82.2494 90.3292 82.4368 90.2239 82.63C90.0828 82.8365 89.9851 83.0696 89.937 83.315C89.9415 83.4144 89.9842 83.5083 90.0562 83.577C90.1281 83.6457 90.2239 83.684 90.3234 83.6839C90.5177 83.6777 90.703 83.6007 90.8445 83.4672C91.1079 83.1862 91.2309 82.9696 91.2719 82.993Z" fill="#D78776"/>
<path d="M82.0621 82.1499C82.0621 82.1499 66.7048 97.2614 64.5502 97.3726C62.0911 97.4897 54.5266 86.7636 54.5266 86.7636C49.6846 79.2927 43.2969 78.0866 40.9667 77.8993V76.9742L29.5204 76.0374C29.5204 76.0374 29.5204 77.021 29.5204 77.8817H24.4676C24.4676 77.8817 15.3925 77.466 14.0342 89.6559L20.5565 94.814L23.2322 104.767C24.1631 108.233 20.8376 113.755 19.2509 122.695C19.0062 124.185 19.2549 125.715 19.9593 127.051L53.0102 130.851L51.2537 105.581L50.7209 99.7263C53.4434 103.444 58.3323 108.702 64.3218 108.585C74.5386 108.392 88.7308 86.9216 88.7308 86.9216L82.0621 82.1499Z" fill="#E0E0E0"/>
<path d="M37.1141 76.8103C37.1709 77.3298 37.1709 77.854 37.1141 78.3736C37.0288 79.6743 36.8527 80.9674 36.5872 82.2436L36.5462 82.4368L36.3706 82.3432C35.9724 82.1324 35.5567 81.9099 35.1352 81.664C33.4958 80.698 32.0965 79.7026 31.0368 79.0117C30.4647 78.6636 29.9134 78.2824 29.3857 77.87C29.5609 77.9212 29.7283 77.9961 29.8833 78.0925C30.1878 78.2623 30.6269 78.5082 31.1539 78.8302C32.2194 79.4743 33.6363 80.4462 35.2523 81.4005C35.6621 81.6406 36.072 81.8689 36.4701 82.0797L36.2535 82.1792C36.593 80.6687 36.757 79.3162 36.8799 78.356C36.9266 77.8365 37.0048 77.3203 37.1141 76.8103V76.8103Z" fill="#FAFAFA"/>
<path d="M41.0018 77.9637C40.9282 78.4666 40.8187 78.9636 40.6739 79.4509C40.5627 79.9134 40.4456 80.4638 40.2465 81.061C40.1429 81.3767 40.0197 81.6856 39.8776 81.986C39.8367 82.0937 39.763 82.1859 39.6669 82.2495C39.6002 82.2904 39.5216 82.3075 39.4439 82.2979C39.3663 82.2883 39.2942 82.2527 39.2395 82.1968C39.1298 82.0351 39.0412 81.8599 38.976 81.6757C38.3905 80.3467 37.928 79.1405 37.5884 78.2565C37.3748 77.7933 37.2119 77.3084 37.1024 76.8103C37.3759 77.2409 37.6054 77.698 37.7874 78.1745C38.1797 79.0352 38.7008 80.2296 39.257 81.5586C39.311 81.7065 39.3776 81.8495 39.4561 81.986C39.4854 81.986 39.4561 81.986 39.5088 81.986C39.5529 81.9503 39.5871 81.904 39.6083 81.8514C39.7484 81.5633 39.8735 81.2682 39.983 80.9673C40.1879 80.3818 40.3285 79.8431 40.4631 79.3923C40.5796 78.8946 40.7606 78.4144 41.0018 77.9637V77.9637Z" fill="#FAFAFA"/>
<path d="M38.8706 118.854C38.8426 118.717 38.827 118.578 38.8238 118.438C38.8238 118.134 38.8004 117.744 38.7535 117.267C38.7067 116.19 38.6364 114.697 38.5544 112.865C38.4139 109.117 38.2149 103.994 38.0041 98.3386C37.7933 92.6828 37.6586 87.5598 37.5415 83.8127C37.5006 81.9742 37.4654 80.4812 37.4362 79.4039C37.4362 78.9121 37.4362 78.514 37.4362 78.233C37.421 78.0928 37.421 77.9515 37.4362 77.8114C37.4631 77.9483 37.4769 78.0875 37.4771 78.2271C37.4771 78.5315 37.524 78.9297 37.5533 79.3981C37.6001 80.4695 37.6704 81.9625 37.7523 83.7951C37.8928 87.5422 38.0861 92.6652 38.3027 98.3211C38.5193 103.977 38.6423 109.1 38.7652 112.853C38.8062 114.685 38.8413 116.178 38.8706 117.256C38.8706 117.753 38.8706 118.152 38.8706 118.456C38.8844 118.588 38.8844 118.722 38.8706 118.854Z" fill="#F5F5F5"/>
<path d="M36.7863 80.5106L37.7465 83.157L38.5721 80.3173L37.2898 77.4719L36.7863 80.5106Z" fill="#FF725E"/>
<path d="M37.9221 82.3666L37.2898 112.156L41.7863 121.559L43.5604 110.979L37.9221 82.3666Z" fill="#FF725E"/>
<path d="M64.7141 101.055C64.7141 101.055 64.7141 101.143 64.7141 101.29L64.679 101.512L64.5795 101.29C64.3529 100.697 64.2224 100.073 64.193 99.4394C64.0962 98.7331 64.1808 98.0137 64.4389 97.3492C64.5268 97.3492 64.4389 98.286 64.4975 99.4218C64.5443 100.23 64.6731 100.921 64.7141 101.254H64.5795C64.6321 101.096 64.6907 101.055 64.7141 101.055Z" fill="#FAFAFA"/>
<path d="M66.0315 100.956C65.5948 100.498 65.2701 99.9445 65.083 99.3399C64.8012 98.7816 64.6472 98.1676 64.6321 97.5424C64.9302 98.0868 65.1734 98.6595 65.3582 99.252C65.6374 99.7968 65.8629 100.367 66.0315 100.956V100.956Z" fill="#FAFAFA"/>
<path d="M87.7707 88.3444C86.5044 87.6745 85.2874 86.9154 84.1289 86.0727C82.9151 85.315 81.7568 84.4717 80.6628 83.5493C81.9286 84.2244 83.1455 84.9874 84.3046 85.8327C85.5181 86.5866 86.6764 87.426 87.7707 88.3444Z" fill="#FAFAFA"/>
<path d="M23.9348 93.1278C23.9348 93.1278 21.4992 110.107 22.6526 111.055C29.0227 116.413 37.8753 119.223 41.037 120.107C41.4995 119.996 42.0381 119.85 42.6588 119.65C43.1967 119.48 43.7016 119.218 44.1518 118.878C44.7265 118.474 45.2427 117.994 45.6857 117.449C45.7526 117.332 45.8542 117.239 45.9763 117.182C46.0985 117.126 46.2352 117.108 46.3677 117.133C46.5001 117.157 46.6216 117.222 46.7155 117.319C46.8094 117.415 46.871 117.538 46.8918 117.672C46.9211 118.257 45.9843 119.762 44.222 120.862C44.222 120.862 48.2795 127.391 49.5734 127.982C50.8673 128.573 54.5676 130.236 53.9411 130.552C53.3147 130.868 48.8122 129.563 48.8122 129.563L39.6786 127.121C39.6786 127.121 9.46739 122.385 11.4756 108.526C12.711 100.031 14.0576 92.3784 14.5436 90.4404L23.9348 93.1278Z" fill="#E5BAAB"/>
<path d="M14.0342 89.65L11.3527 108.157C10.7262 113.854 14.5436 118.38 19.6783 120.927C27.4946 124.797 39.099 127.56 38.9994 127.543C38.8999 127.525 39.784 119.282 39.784 119.282C39.784 119.282 23.5133 112.256 23.0039 109.211C22.4945 106.167 25.0707 93.5201 25.0707 93.5201L14.0342 89.65Z" fill="#E0E0E0"/>
<path d="M38.976 127.543C38.9698 127.494 38.9698 127.445 38.976 127.396C38.976 127.279 38.976 127.139 39.0052 126.969C39.0345 126.565 39.0755 126.021 39.1341 125.324C39.257 123.872 39.4385 121.811 39.6551 119.276L39.7195 119.381L31.5227 115.417L29.1807 114.246C28.3903 113.825 27.5941 113.362 26.8037 112.853C26.0017 112.335 25.2314 111.77 24.4968 111.161C24.128 110.851 23.7591 110.523 23.4078 110.177C23.2097 110.003 23.0502 109.79 22.9394 109.551C22.8774 109.435 22.832 109.311 22.8048 109.182C22.7663 109.06 22.7389 108.934 22.7228 108.807C22.4593 106.781 22.998 104.873 23.3083 103.052C23.6186 101.231 23.9289 99.457 24.2217 97.7825C24.8071 94.4217 25.3399 91.4006 25.7849 88.8479C26.0252 87.717 26.1623 86.5667 26.1948 85.4111C26.2061 84.5415 26.0262 83.68 25.6678 82.8876C25.438 82.3877 25.1116 81.938 24.7076 81.5644C24.4266 81.3127 24.2568 81.2131 24.2626 81.1956C24.4368 81.2832 24.5999 81.3913 24.7486 81.5176C25.1785 81.8802 25.5275 82.329 25.7732 82.8349C26.1575 83.6394 26.3575 84.5195 26.3587 85.4111C26.3456 86.5774 26.2221 87.74 25.9898 88.883C25.5624 91.4416 25.0531 94.4686 24.491 97.8351C24.2041 99.5155 23.9055 101.284 23.5952 103.105C23.5191 103.561 23.4371 104.024 23.3551 104.492C23.2732 104.961 23.1853 105.417 23.1209 105.886C22.967 106.832 22.9414 107.795 23.0448 108.749C23.0634 108.865 23.0888 108.981 23.1209 109.094C23.144 109.207 23.1834 109.315 23.238 109.416C23.3345 109.623 23.4742 109.807 23.6479 109.955C23.9933 110.294 24.3505 110.616 24.7135 110.921C25.4382 111.524 26.1988 112.084 26.991 112.595C27.7697 113.105 28.5543 113.561 29.333 113.983L31.6749 115.154L39.8074 119.205L39.8718 119.241V119.311C39.6083 121.846 39.3975 123.901 39.2512 125.353C39.1692 126.044 39.1106 126.594 39.0638 126.992C39.0404 127.164 39.0228 127.305 39.0111 127.414C39.0036 127.458 38.9918 127.501 38.976 127.543V127.543Z" fill="#FAFAFA"/>
<path d="M37.4654 118.152C37.4828 118.576 37.4494 119 37.3659 119.416C37.2663 120.189 37.1024 121.255 36.8858 122.426C36.6692 123.597 36.4232 124.651 36.2242 125.406C36.1438 125.822 36.008 126.226 35.8202 126.606C35.8406 126.183 35.9054 125.763 36.0134 125.353C36.1851 124.471 36.3803 123.476 36.5989 122.367C36.8038 120.946 37.0931 119.538 37.4654 118.152V118.152Z" fill="#FAFAFA"/>
<path d="M38.976 127.543C38.8785 127.542 38.7817 127.527 38.6892 127.496L37.887 127.303L34.9596 126.53C32.483 125.863 29.0403 124.984 25.3517 123.632C23.6159 122.997 21.9258 122.244 20.2931 121.378C18.9593 120.668 17.6864 119.85 16.4874 118.93C15.6784 118.311 14.9153 117.634 14.204 116.905C13.9522 116.647 13.7707 116.442 13.6185 116.319C13.5488 116.25 13.4896 116.171 13.4429 116.085C13.4429 116.085 13.7356 116.36 14.2626 116.846C15.0049 117.537 15.7868 118.184 16.6045 118.784C17.8153 119.655 19.0871 120.438 20.4102 121.126C22.0388 121.972 23.7207 122.711 25.4454 123.339C29.1106 124.686 32.5474 125.593 35.0064 126.319L37.9339 127.18L38.7243 127.432C38.8126 127.458 38.8973 127.495 38.976 127.543V127.543Z" fill="#FAFAFA"/>
<path d="M39.1751 120.131C39.1786 120.235 39.1508 120.339 39.0953 120.427C39.0399 120.516 38.9592 120.586 38.8636 120.629C38.768 120.672 38.6619 120.685 38.5587 120.667C38.4555 120.649 38.36 120.601 38.2843 120.529C38.2086 120.457 38.1562 120.363 38.1338 120.261C38.1113 120.159 38.1198 120.052 38.1583 119.955C38.1967 119.857 38.2632 119.774 38.3494 119.714C38.4357 119.655 38.5376 119.622 38.6423 119.621C38.7801 119.62 38.913 119.672 39.0126 119.767C39.1122 119.862 39.1705 119.993 39.1751 120.131Z" fill="#FAFAFA"/>
</svg>
